<?xml version="1.0" encoding="UTF-8" standalone="no"?>
<svg
   xmlns:dc="http://purl.org/dc/elements/1.1/"
   xmlns:cc="http://creativecommons.org/ns#"
   xmlns:rdf="http://www.w3.org/1999/02/22-rdf-syntax-ns#"
   xmlns:svg="http://www.w3.org/2000/svg"
   xmlns="http://www.w3.org/2000/svg"
   xmlns:sodipodi="http://sodipodi.sourceforge.net/DTD/sodipodi-0.dtd"
   xmlns:inkscape="http://www.inkscape.org/namespaces/inkscape"
   viewBox="0 0 250 250"
   enable-background="new 0 0 250 250"
   id="svg3426"
   version="1.1"
   inkscape:version="0.91 r13725"
   sodipodi:docname="mog.svg">
  <metadata
     id="metadata3476">
    <rdf:RDF>
      <cc:Work
         rdf:about="">
        <dc:format>image/svg+xml</dc:format>
        <dc:type
           rdf:resource="http://purl.org/dc/dcmitype/StillImage" />
      </cc:Work>
    </rdf:RDF>
  </metadata>
  <defs
     id="defs3474">
    <linearGradient
       x1="-359.49"
       x2="-286.38"
       y1="207.01"
       gradientUnits="userSpaceOnUse"
       y2="190.2"
       id="linearGradient4441">
      <stop
         offset="0"
         id="stop4410" />
      <stop
         offset=".48752"
         stop-color="#333"
         id="stop4416" />
      <stop
         offset="1"
         id="stop4412" />
    </linearGradient>
  </defs>
  <sodipodi:namedview
     pagecolor="#ffffff"
     bordercolor="#666666"
     borderopacity="1"
     objecttolerance="10"
     gridtolerance="10"
     guidetolerance="10"
     inkscape:pageopacity="0"
     inkscape:pageshadow="2"
     inkscape:window-width="1362"
     inkscape:window-height="835"
     id="namedview3472"
     showgrid="false"
     inkscape:zoom="2.3730504"
     inkscape:cx="68.248716"
     inkscape:cy="191.63579"
     inkscape:window-x="152"
     inkscape:window-y="76"
     inkscape:window-maximized="0"
     inkscape:current-layer="svg3426" />
  <g
     id="g4449"
     transform="translate(-17.409011,14.302741)">
    <path
       style="fill:#dadee0"
       inkscape:connector-curvature="0"
       id="path3434"
       d="m 115.17714,48.781883 c -1.797,13.431 -1.51,24.233 1.166,31.132 l 24.807,-18.455 c -4.928,-5.093 -14.93,-11.218 -25.973,-12.677 z" />
    <path
       style="fill:#dadee0"
       inkscape:connector-curvature="0"
       id="path3428"
       d="m 172.89914,48.781883 c 1.797,13.431 1.51,24.233 -1.166,31.132 l -24.808,-18.455 c 4.927,-5.093 14.931,-11.218 25.974,-12.677 z" />
    <path
       style="fill:#f7a4a4"
       inkscape:connector-curvature="0"
       id="path3436"
       d="m 118.30014,78.958883 10.255,-13.253 c 0,0 -1.938,-7.285 -11.616,-12.438 -2.901,11.656 1.361,25.691 1.361,25.691 z" />
    <path
       style="fill:#f7a4a4"
       inkscape:connector-curvature="0"
       id="path3430"
       d="m 169.77614,78.961883 -10.256,-13.253 c 0,0 1.939,-7.285 11.617,-12.438 2.901,11.656 -1.361,25.691 -1.361,25.691" />
    <path
       style="fill:#f78d8d"
       inkscape:connector-curvature="0"
       id="path3432"
       d="m 165.87214,75.941883 -6.352,-8.209 c 0,0 2.574,-5.02 8.568,-8.216 -3.497,7.563 -2.216,16.425 -2.216,16.425" />
    <path
       style="fill:#f78d8d"
       inkscape:connector-curvature="0"
       id="path3438"
       d="m 122.20314,75.941883 6.352,-8.209 c 0,0 -2.574,-5.02 -8.568,-8.216 3.497,7.563 2.216,16.425 2.216,16.425" />
    <path
       style="fill:#dadee0"
       inkscape:connector-curvature="0"
       id="path3440"
       d="m 170.23814,97.535883 c 0.844,-0.881 1.414,-1.633 1.66,-2.162 1.631,-2.643 2.145,-5.342 2.145,-5.342 l -2,0.424 c 0,0 2.318,-2.463 1.691,-7.793 l -1.945,2.102 c 0,0 1.945,-5.41 0.254,-10.4 l -2.152,1.588 c 0,0 0.654,-2.031 0.053,-3.422 l -0.932,0.729 c 0,0 1.689,-4.665 0.154,-6.625 -0.855,2.827 -1.871,2.784 -1.871,2.784 0,0 1.242,-2.116 0.273,-3 -0.986,1.594 -1.807,0.558 -1.768,0.079 0.055,-0.637 -0.193,-1.534 2.703,-1.957 -2.314,-1.414 -5.05,-0.43 -5.05,-0.43 0,0 0.098,-1.489 2.123,-1.43 -1.871,-1.593 -4.48,-0.648 -4.48,-0.648 l 0.006,0.017 c -4.111,-3.11 -9.646,-4.902 -17.05,-4.902 -7.408,0 -12.942,1.792 -17.05,4.902 l 0.006,-0.017 c 0,0 -2.609,-0.944 -4.48,0.648 2.027,-0.06 2.125,1.43 2.125,1.43 0,0 -2.742,-0.984 -5.057,0.43 2.898,0.423 2.65,1.32 2.703,1.957 0.039,0.479 -0.779,1.515 -1.768,-0.079 -0.967,0.887 0.275,3 0.275,3 0,0 -1.016,0.043 -1.871,-2.784 -1.537,1.96 0.154,6.625 0.154,6.625 l -0.932,-0.729 c -0.602,1.391 0.053,3.422 0.053,3.422 l -2.154,-1.588 c -1.691,4.99 0.254,10.4 0.254,10.4 l -1.945,-2.102 c -0.625,5.33 1.691,7.793 1.691,7.793 l -2,-0.424 c 0,0 0.513,2.694 2.141,5.339 0.249,0.534 0.833,1.304 1.698,2.202 0.023,0.024 0.044,0.049 0.067,0.072 l 0,-0.004 c 4.066,4.182997 14.213,11.140997 26.09,11.140997 11.877,0 22.03,-6.96 26.09,-11.141997 l 0.002,0.005 c 0.033,-0.036 0.064,-0.072 0.099,-0.109" />
    <g
       style="fill:#94989b"
       transform="translate(112.03814,46.781883)"
       id="g3442">
      <path
         inkscape:connector-curvature="0"
         id="path3444"
         d="M 37.686,10.763 C 35.924,10.505 34.036,10.362 32,10.362 c -2.036,0 -3.926,0.144 -5.689,0.401 0.736,3.856 2.75,6.583 5.688,11.585 2.98,-5.079 4.964,-7.756 5.687,-11.585" />
      <path
         inkscape:connector-curvature="0"
         id="path3446"
         d="m 46.813,13.785 c -1.908,-1.092 -4.072,-1.944 -6.523,-2.523 0.59,2.29 1.857,3.921 3.627,6.935 1.237,-2.111 2.216,-2.663 2.896,-4.412" />
      <path
         inkscape:connector-curvature="0"
         id="path3448"
         d="m 23.709,11.263 c -2.451,0.579 -4.615,1.431 -6.521,2.522 0.686,1.765 1.666,2.323 2.891,4.411 1.794,-3.057 3.048,-4.664 3.63,-6.933" />
    </g>
    <g
       id="layer1"
       transform="matrix(0.0588399,0,0,0.0588399,109.79158,15.694788)">
      <g
         id="g4420"
         transform="matrix(3.8656,0,0,3.8656,1706.3,-343.28)">
        <path
           sodipodi:nodetypes="cccccc"
           style="fill:#1a1a1a"
           inkscape:connector-curvature="0"
           id="path4418"
           d="m -280.79541,284.32449 -9.87259,11.43531 74.499,-54.296 23.72627,-1.25484 -23.04832,8.40185 c -28.91687,12.97687 -43.53624,23.80912 -65.30436,35.71368 z" />
        <path
           sodipodi:nodetypes="cccccccccc"
           style="stroke:#000000;stroke-width:1px"
           inkscape:connector-curvature="0"
           id="path4384"
           d="m -393.93,263.79 c -68.545,-1.2883 -50.325,79.738 25,63.929 28.335,-5.6385 55.61,-23.077 78.836,-40.129 22.611,-16.601 44.529,-37.246 62.886,-48.495 51.65176,-4.02652 -49.30298,26.31817 -54.23892,34.49408 29.73795,-8.96513 101.90848,-42.07969 53.94592,-36.22608 -10.838,-35.809 -11.446,-77.588 -12.143,-118.93 -58.485,-4.5435 -122.53,4.6459 -180,24.643 15.157,41.753 26.815,82.701 25.714,120.71 z" />
        <path
           style="fill:#1a1a1a"
           inkscape:connector-curvature="0"
           id="path4394"
           d="m -394.46,275.22 c -0.40507,10.588 -0.82668,22.262 -2.1428,28.75 38.342,5.1625 72.444,-6.0312 107.68,-12.857 l 51.071,-40.357 c -51.274,9.2787 -97.231,24.994 -156.61,24.464 z" />
        <path
           id="path4392"
           transform="matrix(4.3965413,0,0,4.3965413,-924.10947,19.801024)"
           d="m 163.30664,48.466797 c -1.43393,-0.06081 -3.03807,0.338495 -4.55469,1.376953 -4.45168,3.048305 -8.58059,6.872952 -12.89648,9.939453 -6.10068,4.334726 -11.9872,7.99049 -16.85547,9.541016 14.08562,-3.615944 19.13287,-8.022994 24.68945,-12.363281 2.86421,-2.684918 5.64369,-5.39771 13.23243,-7.013672 -0.8266,-0.853121 -2.12581,-1.41731 -3.61524,-1.480469 z"
           style="fill:#333333;stroke:#333333;stroke-width:0.22745152px"
           inkscape:connector-curvature="0" />
      </g>
    </g>
    <path
       style="fill:#4c5359"
       inkscape:connector-curvature="0"
       id="path3450"
       d="m 148.07814,85.548883 c -0.811,-0.945 -3.299,-1.018 -4.04,-1.018 -0.742,0 -3.232,0.072 -4.04,1.018 -0.576,0.674 -0.131,2.344 1.406,3.785 0.969,0.91 1.895,1.197 2.637,1.197 0.744,0 1.67,-0.287 2.639,-1.197 1.535,-1.442 1.982,-3.112 1.404,-3.785" />
    <path
       style="fill:#ffffff"
       inkscape:connector-curvature="0"
       id="path3452"
       d="m 136.33714,77.621883 c 0,0 -0.484,-3.569 -4.51,-5.03 -4.538,-1.651 -7.635,1.386 -8.476,3.694 -1.24,3.407 0.316,7.133 0.778,7.992 0.306,0.566 3.659,3.241 11.219,0.709 0.001,0 1.883,-3.789 0.989,-7.361" />
    <path
       style="fill:#b2b6b8"
       inkscape:connector-curvature="0"
       id="path3454"
       d="m 136.33714,77.621883 c 0,0 -5.917,-4.811 -6.273,-4.824 -1.451,-0.041 -2.832,-0.422 -3.896,0.6 -1.061,1.01 -1.938,2.329 -2.29,3.713 -0.383,1.406 -0.313,2.951 0.021,4.435 0.16,0.743 0.392,1.487 0.688,2.173 l 0.113,0.243 c -0.032,-0.054 0.014,0.022 0.017,0.026 0.002,0 0,-0.005 -0.002,-0.006 l 0.055,0.063 c 0.098,0.103 0.231,0.209 0.37,0.312 0.282,0.203 0.602,0.384 0.94,0.532 1.365,0.595 2.949,0.792 4.519,0.751 1.584,-0.006 3.168,-0.31 4.75,-0.655 -1.479,0.668 -3.055,1.128 -4.69,1.388 -1.634,0.219 -3.361,0.197 -5.01,-0.396 -0.411,-0.147 -0.814,-0.334 -1.207,-0.574 -0.195,-0.124 -0.384,-0.262 -0.575,-0.441 -0.05,-0.048 -0.092,-0.091 -0.151,-0.159 l -0.097,-0.124 -0.063,-0.102 -0.156,-0.299 c -0.379,-0.78 -0.661,-1.574 -0.879,-2.4 -0.415,-1.645 -0.529,-3.423 -0.09,-5.15 0.491,-1.739 1.491,-3.206 2.792,-4.381 1.304,-1.15 3.121,-0.924 4.921,-0.71 0.445,0.048 6.195,5.985 6.195,5.985" />
    <path
       style="fill:#ffffff"
       inkscape:connector-curvature="0"
       id="path3456"
       d="m 151.73514,77.621883 c 0,0 0.484,-3.568 4.51,-5.03 4.539,-1.651 7.635,1.387 8.477,3.694 1.24,3.407 -0.316,7.133 -0.779,7.992 -0.305,0.566 -3.658,3.241 -11.219,0.709 0,0 -1.883,-3.789 -0.989,-7.361" />
    <path
       style="fill:#b2b6b8"
       inkscape:connector-curvature="0"
       id="path3458"
       d="m 151.73514,77.621883 c 0,0 5.75,-5.937 6.197,-5.987 1.801,-0.214 3.617,-0.44 4.92,0.71 1.301,1.175 2.301,2.642 2.793,4.382 0.438,1.728 0.324,3.505 -0.09,5.15 -0.219,0.825 -0.5,1.619 -0.881,2.399 l -0.154,0.299 -0.064,0.102 -0.096,0.124 c -0.061,0.068 -0.102,0.111 -0.152,0.159 -0.191,0.18 -0.379,0.317 -0.576,0.441 -0.391,0.24 -0.795,0.427 -1.205,0.574 -1.65,0.593 -3.379,0.614 -5.01,0.396 -1.635,-0.26 -3.211,-0.72 -4.689,-1.388 1.582,0.346 3.166,0.649 4.75,0.655 1.57,0.041 3.152,-0.156 4.52,-0.751 0.338,-0.148 0.658,-0.329 0.939,-0.532 0.139,-0.103 0.273,-0.209 0.371,-0.312 l 0.055,-0.063 c -0.002,0.001 -0.004,0.006 -0.002,0.007 0.002,-0.005 0.049,-0.081 0.016,-0.027 l 0.113,-0.243 c 0.297,-0.686 0.529,-1.43 0.689,-2.173 0.334,-1.483 0.404,-3.03 0.021,-4.435 -0.354,-1.384 -1.23,-2.705 -2.291,-3.713 -1.064,-1.021 -2.445,-0.641 -3.896,-0.6 -0.356,0.015 -6.274,4.826 -6.274,4.826" />
    <g
       style="fill:#4c5359"
       transform="translate(112.03814,46.781883)"
       id="g3460">
      <ellipse
         id="ellipse3462"
         ry="4.5"
         rx="4"
         cy="32.5"
         cx="44" />
      <ellipse
         id="ellipse3464"
         ry="4.5"
         rx="4"
         cy="32.5"
         cx="20" />
      <path
         inkscape:connector-curvature="0"
         id="path3466"
         d="m 55.893,24.525 c -1.871,0.182 -3.539,0.459 -5.154,0.891 -1.609,0.422 -3.145,0.982 -4.621,1.668 -1.484,0.689 -2.891,1.488 -4.25,2.447 -1.365,0.957 -2.645,2.057 -3.975,3.387 0.203,-1.885 1.127,-3.656 2.369,-5.115 1.248,-1.461 2.852,-2.641 4.596,-3.441 1.75,-0.811 3.67,-1.262 5.59,-1.279 1.911,-0.009 3.859,0.407 5.445,1.442" />
      <path
         inkscape:connector-curvature="0"
         id="path3468"
         d="m 8.104,24.525 c 1.586,-1.035 3.531,-1.451 5.443,-1.443 1.922,0.018 3.842,0.469 5.592,1.279 1.744,0.801 3.346,1.98 4.594,3.441 1.242,1.461 2.168,3.23 2.371,5.115 -1.33,-1.33 -2.611,-2.43 -3.975,-3.387 -1.361,-0.959 -2.768,-1.758 -4.25,-2.449 -1.479,-0.684 -3.01,-1.244 -4.623,-1.666 -1.613,-0.431 -3.283,-0.708 -5.152,-0.89" />
      <path
         inkscape:connector-curvature="0"
         id="path3470"
         d="m 22.18,48.546 c 2.229,0.678 4.283,0.92 6.328,0.914 2.035,-0.002 4.02,-0.273 5.975,-0.74 1.945,-0.479 3.838,-1.145 5.652,-2.07 1.816,-0.932 3.535,-2.08 5.213,-3.697 -0.318,2.346 -1.771,4.48 -3.584,6.06 -1.828,1.594 -4.076,2.691 -6.426,3.258 -2.352,0.563 -4.848,0.613 -7.203,0.029 -2.334,-0.579 -4.598,-1.814 -5.955,-3.753" />
    </g>
    <path
       inkscape:connector-curvature="0"
       id="path3478"
       d="m 157.49133,69.475852 a 9.3243444,9.3243444 0 0 0 -9.32336,9.325009 9.3243444,9.3243444 0 0 0 9.32336,9.325008 9.3243444,9.3243444 0 0 0 5.29965,-1.656242 2.220082,2.220082 0 0 0 -0.0593,0.500495 2.220082,2.220082 0 0 0 2.21931,2.220945 2.220082,2.220082 0 0 0 2.22094,-2.220945 2.220082,2.220082 0 0 0 -2.22094,-2.2193 2.220082,2.220082 0 0 0 -0.31117,0.02305 9.3243444,9.3243444 0 0 0 2.1765,-5.973011 9.3243444,9.3243444 0 0 0 -9.32501,-9.325008 z"
       style="fill:none;stroke:#000000;stroke-width:1.77017105;stroke-miterlimit:4;stroke-dasharray:none;stroke-opacity:1" />
  </g>
</svg>
