<?xml version="1.0" encoding="UTF-8" standalone="no"?>
<svg
   xmlns:dc="http://purl.org/dc/elements/1.1/"
   xmlns:cc="http://creativecommons.org/ns#"
   xmlns:rdf="http://www.w3.org/1999/02/22-rdf-syntax-ns#"
   xmlns:svg="http://www.w3.org/2000/svg"
   xmlns="http://www.w3.org/2000/svg"
   xmlns:xlink="http://www.w3.org/1999/xlink"
   xmlns:sodipodi="http://sodipodi.sourceforge.net/DTD/sodipodi-0.dtd"
   xmlns:inkscape="http://www.inkscape.org/namespaces/inkscape"
   viewBox="0 0 250 250"
   enable-background="new 0 0 250 250"
   id="svg3426"
   version="1.1"
   inkscape:version="0.91 r13725"
   sodipodi:docname="mog.svg">
  <metadata
     id="metadata3476">
    <rdf:RDF>
      <cc:Work
         rdf:about="">
        <dc:format>image/svg+xml</dc:format>
        <dc:type
           rdf:resource="http://purl.org/dc/dcmitype/StillImage" />
      </cc:Work>
    </rdf:RDF>
  </metadata>
  <defs
     id="defs3474">
    <linearGradient
       x1="-359.49"
       x2="-286.38"
       y1="207.01"
       gradientUnits="userSpaceOnUse"
       y2="190.2"
       id="linearGradient4441">
      <stop
         offset="0"
         id="stop4410" />
      <stop
         offset=".48752"
         stop-color="#333"
         id="stop4416" />
      <stop
         offset="1"
         id="stop4412" />
    </linearGradient>
  </defs>
  <sodipodi:namedview
     pagecolor="#ffffff"
     bordercolor="#666666"
     borderopacity="1"
     objecttolerance="10"
     gridtolerance="10"
     guidetolerance="10"
     inkscape:pageopacity="0"
     inkscape:pageshadow="2"
     inkscape:window-width="1362"
     inkscape:window-height="835"
     id="namedview3472"
     showgrid="false"
     inkscape:zoom="4.7461008"
     inkscape:cx="123.1431"
     inkscape:cy="64.700642"
     inkscape:window-x="151"
     inkscape:window-y="119"
     inkscape:window-maximized="0"
     inkscape:current-layer="svg3426" />
  <path
     d="m 131.05861,71.091196 c -1.797,13.431 -1.51,24.233 1.166,31.132004 l 24.807,-18.455004 c -4.928,-5.093 -14.93,-11.218 -25.973,-12.677 z"
     id="path3434"
     inkscape:connector-curvature="0"
     style="fill:#dadee0" />
  <path
     d="m 188.78061,71.091196 c 1.797,13.431 1.51,24.233 -1.166,31.132004 l -24.808,-18.455004 c 4.927,-5.093 14.931,-11.218 25.974,-12.677 z"
     id="path3428"
     inkscape:connector-curvature="0"
     style="fill:#dadee0" />
  <path
     d="m 134.18161,101.2682 10.255,-13.253004 c 0,0 -1.938,-7.285 -11.616,-12.438 -2.901,11.656 1.361,25.691004 1.361,25.691004 z"
     id="path3436"
     inkscape:connector-curvature="0"
     style="fill:#f7a4a4" />
  <path
     d="m 185.65761,101.2712 -10.256,-13.253004 c 0,0 1.939,-7.285 11.617,-12.438 2.901,11.656 -1.361,25.691004 -1.361,25.691004"
     id="path3430"
     inkscape:connector-curvature="0"
     style="fill:#f7a4a4" />
  <path
     d="m 181.75361,98.251196 -6.352,-8.209 c 0,0 2.574,-5.02 8.568,-8.216 -3.497,7.563 -2.216,16.425 -2.216,16.425"
     id="path3432"
     inkscape:connector-curvature="0"
     style="fill:#f78d8d" />
  <path
     d="m 138.08462,98.251196 6.35199,-8.209 c 0,0 -2.574,-5.02 -8.568,-8.216 3.497,7.563 2.216,16.425 2.216,16.425"
     id="path3438"
     inkscape:connector-curvature="0"
     style="fill:#f78d8d" />
  <path
     d="m 186.11961,119.8452 c 0.844,-0.881 1.414,-1.633 1.66,-2.162 1.631,-2.643 2.145,-5.342 2.145,-5.342 l -2,0.424 c 0,0 2.318,-2.463 1.691,-7.793 l -1.945,2.102 c 0,0 1.945,-5.41 0.254,-10.400004 l -2.152,1.588 c 0,0 0.654,-2.031 0.053,-3.422 l -0.932,0.729 c 0,0 1.689,-4.665 0.154,-6.625 -0.85499,2.827 -1.871,2.784 -1.871,2.784 0,0 1.242,-2.116 0.273,-3 -0.986,1.594 -1.807,0.558 -1.768,0.079 0.055,-0.637 -0.193,-1.534 2.703,-1.957 -2.314,-1.414 -5.05,-0.43 -5.05,-0.43 0,0 0.098,-1.489 2.123,-1.43 -1.871,-1.593 -4.48,-0.648 -4.48,-0.648 l 0.006,0.017 c -4.111,-3.11 -9.646,-4.902 -17.05,-4.902 -7.408,0 -12.942,1.792 -17.05,4.902 l 0.006,-0.017 c 0,0 -2.609,-0.944 -4.48,0.648 2.027,-0.06 2.125,1.43 2.125,1.43 0,0 -2.742,-0.984 -5.057,0.43 2.898,0.423 2.65,1.32 2.703,1.957 0.039,0.479 -0.779,1.515 -1.768,-0.079 -0.967,0.887 0.275,3 0.275,3 0,0 -1.016,0.043 -1.871,-2.784 -1.537,1.96 0.154,6.625 0.154,6.625 l -0.932,-0.729 c -0.602,1.391 0.053,3.422 0.053,3.422 l -2.154,-1.588 c -1.691,4.990004 0.254,10.400004 0.254,10.400004 l -1.945,-2.102 c -0.625,5.33 1.691,7.793 1.691,7.793 l -2,-0.424 c 0,0 0.513,2.694 2.14101,5.339 0.24899,0.534 0.83299,1.304 1.69799,2.202 0.023,0.024 0.044,0.049 0.067,0.072 l 0,-0.004 c 4.066,4.18299 14.213,11.14099 26.09,11.14099 11.877,0 22.03,-6.96 26.09,-11.14199 l 0.002,0.005 c 0.033,-0.036 0.064,-0.072 0.099,-0.109"
     id="path3440"
     inkscape:connector-curvature="0"
     style="fill:#dadee0" />
  <g
     id="g3442"
     transform="translate(127.91961,69.091196)"
     style="fill:#94989b">
    <path
       d="M 37.686,10.763 C 35.924,10.505 34.036,10.362 32,10.362 c -2.036,0 -3.926,0.144 -5.689,0.401 0.736,3.856 2.75,6.583 5.688,11.585 2.98,-5.079 4.964,-7.756 5.687,-11.585"
       id="path3444"
       inkscape:connector-curvature="0" />
    <path
       d="m 46.813,13.785 c -1.908,-1.092 -4.072,-1.944 -6.523,-2.523 0.59,2.29 1.857,3.921 3.627,6.935 1.237,-2.111 2.216,-2.663 2.896,-4.412"
       id="path3446"
       inkscape:connector-curvature="0" />
    <path
       d="m 23.709,11.263 c -2.451,0.579 -4.615,1.431 -6.521,2.522 0.686,1.765 1.666,2.323 2.891,4.411 1.794,-3.057 3.048,-4.664 3.63,-6.933"
       id="path3448"
       inkscape:connector-curvature="0" />
  </g>
  <g
     transform="matrix(0.0588399,0,0,0.0588399,125.67305,38.004101)"
     id="layer1">
    <g
       transform="matrix(3.8656,0,0,3.8656,1706.3,-343.28)"
       id="g4420">
      <path
         d="m -280.79541,284.32449 -9.87259,11.43531 74.499,-54.296 23.72627,-1.25484 -23.04832,8.40185 c -28.91687,12.97687 -43.53624,23.80912 -65.30436,35.71368 z"
         id="path4418"
         inkscape:connector-curvature="0"
         style="fill:#1a1a1a"
         sodipodi:nodetypes="cccccc" />
      <path
         d="m -393.93,263.79 c -68.545,-1.2883 -50.325,79.738 25,63.929 28.335,-5.6385 55.61,-23.077 78.836,-40.129 22.611,-16.601 44.529,-37.246 62.886,-48.495 51.65176,-4.02652 -49.30298,26.31817 -54.23892,34.49408 29.73795,-8.96513 101.90848,-42.07969 53.94592,-36.22608 -10.838,-35.809 -11.446,-77.588 -12.143,-118.93 -58.485,-4.5435 -122.53,4.6459 -180,24.643 15.157,41.753 26.815,82.701 25.714,120.71 z"
         id="path4384"
         inkscape:connector-curvature="0"
         style="stroke:#000000;stroke-width:1px"
         sodipodi:nodetypes="cccccccccc" />
      <path
         d="m -394.46,275.22 c -0.40507,10.588 -0.82668,22.262 -2.1428,28.75 38.342,5.1625 72.444,-6.0312 107.68,-12.857 l 51.071,-40.357 c -51.274,9.2787 -97.231,24.994 -156.61,24.464 z"
         id="path4394"
         inkscape:connector-curvature="0"
         style="fill:#1a1a1a" />
      <path
         inkscape:connector-curvature="0"
         style="fill:#333333;stroke:#333333;stroke-width:0.22745152px"
         d="m 163.30664,48.466797 c -1.43393,-0.06081 -3.03807,0.338495 -4.55469,1.376953 -4.45168,3.048305 -8.58059,6.872952 -12.89648,9.939453 -6.10068,4.334726 -11.9872,7.99049 -16.85547,9.541016 14.08562,-3.615944 19.13287,-8.022994 24.68945,-12.363281 2.86421,-2.684918 5.64369,-5.39771 13.23243,-7.013672 -0.8266,-0.853121 -2.12581,-1.41731 -3.61524,-1.480469 z"
         transform="matrix(4.3965413,0,0,4.3965413,-924.10947,19.801024)"
         id="path4392" />
    </g>
  </g>
  <path
     d="m 163.95961,107.8582 c -0.811,-0.945 -3.299,-1.018 -4.04,-1.018 -0.742,0 -3.232,0.072 -4.04,1.018 -0.576,0.674 -0.131,2.344 1.406,3.785 0.969,0.91 1.89501,1.197 2.637,1.197 0.744,0 1.67,-0.287 2.63901,-1.197 1.535,-1.442 1.982,-3.112 1.404,-3.785"
     id="path3450"
     inkscape:connector-curvature="0"
     style="fill:#4c5359" />
  <path
     d="m 152.21861,99.931196 c 0,0 -0.484,-3.569 -4.51,-5.03 -4.53799,-1.651 -7.63499,1.386 -8.476,3.694 -1.23999,3.407004 0.316,7.133004 0.77801,7.992004 0.306,0.566 3.659,3.241 11.219,0.709 10e-4,0 1.883,-3.789 0.989,-7.361004"
     id="path3452"
     inkscape:connector-curvature="0"
     style="fill:#ffffff" />
  <path
     d="m 152.21861,99.931196 c 0,0 -5.917,-4.811 -6.273,-4.824 -1.451,-0.041 -2.832,-0.422 -3.89599,0.6 -1.06101,1.01 -1.93801,2.329 -2.29001,3.713 -0.38299,1.406004 -0.313,2.951004 0.021,4.435004 0.16,0.743 0.392,1.487 0.688,2.173 l 0.113,0.243 c -0.032,-0.054 0.014,0.022 0.017,0.026 0.002,0 0,-0.005 -0.002,-0.006 l 0.055,0.063 c 0.098,0.103 0.231,0.209 0.37,0.312 0.28199,0.203 0.602,0.384 0.94,0.532 1.36499,0.595 2.94899,0.792 4.51899,0.751 1.584,-0.006 3.168,-0.31 4.75,-0.655 -1.479,0.668 -3.055,1.128 -4.69,1.388 -1.63399,0.219 -3.361,0.197 -5.01,-0.396 -0.411,-0.147 -0.81399,-0.334 -1.20699,-0.574 -0.195,-0.124 -0.38401,-0.262 -0.57501,-0.441 -0.05,-0.048 -0.092,-0.091 -0.15099,-0.159 l -0.097,-0.124 -0.063,-0.102 -0.156,-0.299 c -0.37901,-0.78 -0.661,-1.574 -0.87901,-2.4 -0.415,-1.645 -0.529,-3.423 -0.09,-5.150004 0.491,-1.739 1.491,-3.206 2.792,-4.381 1.304,-1.15 3.121,-0.924 4.921,-0.71 0.445,0.048 6.195,5.985 6.195,5.985"
     id="path3454"
     inkscape:connector-curvature="0"
     style="fill:#b2b6b8" />
  <path
     d="m 167.61661,99.931196 c 0,0 0.484,-3.568 4.51,-5.03 4.539,-1.651 7.635,1.387 8.477,3.694 1.24,3.407004 -0.316,7.133004 -0.779,7.992004 -0.305,0.566 -3.658,3.241 -11.219,0.709 0,0 -1.883,-3.789 -0.989,-7.361004"
     id="path3456"
     inkscape:connector-curvature="0"
     style="fill:#ffffff" />
  <path
     d="m 167.61661,99.931196 c 0,0 5.75,-5.937 6.197,-5.987 1.801,-0.214 3.617,-0.44 4.92,0.71 1.301,1.175 2.301,2.642 2.793,4.382 0.438,1.728004 0.324,3.505004 -0.09,5.150004 -0.219,0.825 -0.5,1.619 -0.881,2.399 l -0.154,0.299 -0.064,0.102 -0.096,0.124 c -0.061,0.068 -0.102,0.111 -0.152,0.159 -0.191,0.18 -0.37899,0.317 -0.57599,0.441 -0.391,0.24 -0.795,0.427 -1.20501,0.574 -1.65,0.593 -3.379,0.614 -5.01,0.396 -1.63499,-0.26 -3.211,-0.72 -4.68899,-1.388 1.582,0.346 3.166,0.649 4.75,0.655 1.56999,0.041 3.15199,-0.156 4.52,-0.751 0.338,-0.148 0.658,-0.329 0.939,-0.532 0.139,-0.103 0.273,-0.209 0.371,-0.312 l 0.055,-0.063 c -0.002,0.001 -0.004,0.006 -0.002,0.007 0.002,-0.005 0.049,-0.081 0.016,-0.027 l 0.113,-0.243 c 0.297,-0.686 0.529,-1.43 0.689,-2.173 0.334,-1.483 0.40399,-3.03 0.021,-4.435004 -0.354,-1.384 -1.23,-2.705 -2.291,-3.713 -1.064,-1.021 -2.445,-0.641 -3.89599,-0.6 -0.356,0.015 -6.274,4.826 -6.274,4.826"
     id="path3458"
     inkscape:connector-curvature="0"
     style="fill:#b2b6b8" />
  <g
     id="g3460"
     transform="translate(127.91961,69.091196)"
     style="fill:#4c5359">
    <ellipse
       cx="44"
       cy="32.5"
       rx="4"
       ry="4.5"
       id="ellipse3462" />
    <ellipse
       cx="20"
       cy="32.5"
       rx="4"
       ry="4.5"
       id="ellipse3464" />
    <path
       d="m 55.893,24.525 c -1.871,0.182 -3.539,0.459 -5.154,0.891 -1.609,0.422 -3.145,0.982 -4.621,1.668 -1.484,0.689 -2.891,1.488 -4.25,2.447 -1.365,0.957 -2.645,2.057 -3.975,3.387 0.203,-1.885 1.127,-3.656 2.369,-5.115 1.248,-1.461 2.852,-2.641 4.596,-3.441 1.75,-0.811 3.67,-1.262 5.59,-1.279 1.911,-0.009 3.859,0.407 5.445,1.442"
       id="path3466"
       inkscape:connector-curvature="0" />
    <path
       d="m 8.104,24.525 c 1.586,-1.035 3.531,-1.451 5.443,-1.443 1.922,0.018 3.842,0.469 5.592,1.279 1.744,0.801 3.346,1.98 4.594,3.441 1.242,1.461 2.168,3.23 2.371,5.115 -1.33,-1.33 -2.611,-2.43 -3.975,-3.387 -1.361,-0.959 -2.768,-1.758 -4.25,-2.449 -1.479,-0.684 -3.01,-1.244 -4.623,-1.666 -1.613,-0.431 -3.283,-0.708 -5.152,-0.89"
       id="path3468"
       inkscape:connector-curvature="0" />
    <path
       d="m 22.18,48.546 c 2.229,0.678 4.283,0.92 6.328,0.914 2.035,-0.002 4.02,-0.273 5.975,-0.74 1.945,-0.479 3.838,-1.145 5.652,-2.07 1.816,-0.932 3.535,-2.08 5.213,-3.697 -0.318,2.346 -1.771,4.48 -3.584,6.06 -1.828,1.594 -4.076,2.691 -6.426,3.258 -2.352,0.563 -4.848,0.613 -7.203,0.029 -2.334,-0.579 -4.598,-1.814 -5.955,-3.753"
       id="path3470"
       inkscape:connector-curvature="0" />
  </g>
  <path
     style="fill:none;stroke:#000000;stroke-width:1.77017105;stroke-miterlimit:4;stroke-dasharray:none;stroke-opacity:1"
     d="m 173.3728,91.785165 a 9.3243444,9.3243444 0 0 0 -9.32336,9.325005 9.3243444,9.3243444 0 0 0 9.32336,9.32501 9.3243444,9.3243444 0 0 0 5.29965,-1.65624 2.220082,2.220082 0 0 0 -0.0593,0.50049 2.220082,2.220082 0 0 0 2.21931,2.22095 2.220082,2.220082 0 0 0 2.22094,-2.22095 2.220082,2.220082 0 0 0 -2.22094,-2.2193 2.220082,2.220082 0 0 0 -0.31117,0.023 9.3243444,9.3243444 0 0 0 2.1765,-5.97301 9.3243444,9.3243444 0 0 0 -9.32501,-9.325004 z"
     id="path3478"
     inkscape:connector-curvature="0" />
  <g
     id="g3732"
     transform="translate(1.4898689,2.0858164)"
     inkscape:export-xdpi="90"
     inkscape:export-ydpi="90">
    <g
       transform="translate(17.307627,66.298526)"
       id="g3664">
      <path
         style="fill:#dadee0"
         inkscape:connector-curvature="0"
         d="m 60.857,1.999 c 1.797,13.431 1.51,24.23 -1.166,31.13 L 34.884,14.674 C 39.812,9.581 49.814,3.456 60.857,1.997"
         id="path3610" />
      <path
         style="fill:#f7a4a4"
         inkscape:connector-curvature="0"
         d="M 57.734,32.18 47.479,18.927 c 0,0 1.938,-7.285 11.616,-12.438 2.901,11.656 -1.361,25.691 -1.361,25.691"
         id="path3612" />
      <path
         style="fill:#f78d8d"
         inkscape:connector-curvature="0"
         d="m 53.831,29.16 -6.352,-8.209 c 0,0 2.574,-5.02 8.568,-8.216 -3.497,7.563 -2.216,16.425 -2.216,16.425"
         id="path3614" />
      <path
         style="fill:#dadee0"
         inkscape:connector-curvature="0"
         d="M 3.135,1.999 C 1.338,15.43 1.625,26.229 4.301,33.129 L 29.109,14.674 C 24.181,9.581 14.178,3.456 3.135,1.997"
         id="path3616" />
      <path
         style="fill:#f7a4a4"
         inkscape:connector-curvature="0"
         d="M 6.258,32.18 16.513,18.927 c 0,0 -1.938,-7.285 -11.616,-12.438 C 1.996,18.145 6.258,32.18 6.258,32.18"
         id="path3618" />
      <path
         style="fill:#f78d8d"
         inkscape:connector-curvature="0"
         d="m 10.161,29.16 6.352,-8.209 c 0,0 -2.574,-5.02 -8.568,-8.216 3.497,7.563 2.216,16.425 2.216,16.425"
         id="path3620" />
      <path
         style="fill:#dadee0"
         inkscape:connector-curvature="0"
         d="m 58.19,50.753 c 0.845,-0.881 1.415,-1.633 1.661,-2.162 1.63,-2.643 2.144,-5.342 2.144,-5.342 l -2,0.424 c 0,0 2.318,-2.463 1.691,-7.793 l -1.945,2.102 c 0,0 1.945,-5.41 0.254,-10.4 l -2.152,1.588 c 0,0 0.654,-2.031 0.053,-3.422 l -0.932,0.729 c 0,0 1.689,-4.665 0.154,-6.625 -0.855,2.827 -1.871,2.784 -1.871,2.784 0,0 1.242,-2.116 0.273,-3 -0.986,1.594 -1.807,0.558 -1.768,0.079 0.055,-0.637 -0.193,-1.534 2.703,-1.957 -2.314,-1.414 -5.05,-0.43 -5.05,-0.43 0,0 0.098,-1.489 2.123,-1.43 -1.871,-1.593 -4.48,-0.648 -4.48,-0.648 l 0.006,0.017 c -4.111,-3.11 -9.646,-4.902 -17.05,-4.902 -7.408,0 -12.942,1.792 -17.05,4.902 L 14.96,15.25 c 0,0 -2.609,-0.944 -4.48,0.648 2.027,-0.06 2.125,1.43 2.125,1.43 0,0 -2.742,-0.984 -5.057,0.43 2.898,0.423 2.65,1.32 2.703,1.957 0.039,0.479 -0.779,1.515 -1.768,-0.079 -0.967,0.887 0.275,3 0.275,3 0,0 -1.016,0.043 -1.871,-2.784 -1.537,1.96 0.154,6.625 0.154,6.625 l -0.929,-0.73 c -0.602,1.391 0.053,3.422 0.053,3.422 L 4.011,27.581 c -1.691,4.99 0.254,10.4 0.254,10.4 L 2.319,35.88 c -0.625,5.33 1.691,7.793 1.691,7.793 l -2,-0.424 c 0,0 0.513,2.694 2.141,5.339 0.249,0.534 0.833,1.304 1.698,2.202 0.023,0.024 0.044,0.049 0.067,0.072 l 0,-0.004 c 4.065,4.183 14.213,11.141 26.09,11.141 11.882,0 22.03,-6.96 26.09,-11.142 l 0,0.005 c 0.034,-0.036 0.065,-0.072 0.099,-0.109"
         id="path3622" />
      <g
         style="fill:#94989b"
         id="g3624">
        <path
           inkscape:connector-curvature="0"
           d="m 37.682,10.762 c -1.762,-0.258 -3.65,-0.401 -5.686,-0.401 -2.036,0 -3.926,0.144 -5.689,0.401 0.736,3.856 2.75,6.583 5.688,11.585 2.98,-5.079 4.964,-7.756 5.687,-11.585"
           id="path3626" />
        <path
           inkscape:connector-curvature="0"
           d="m 46.809,13.784 c -1.908,-1.092 -4.072,-1.944 -6.523,-2.523 0.59,2.29 1.857,3.921 3.627,6.935 1.237,-2.111 2.216,-2.663 2.896,-4.412"
           id="path3628" />
        <path
           inkscape:connector-curvature="0"
           d="m 23.705,11.262 c -2.451,0.579 -4.615,1.431 -6.521,2.522 0.686,1.765 1.666,2.323 2.891,4.411 1.794,-3.057 3.048,-4.664 3.63,-6.933"
           id="path3630" />
      </g>
      <g
         style="fill:#4c5359"
         id="g3632">
        <path
           inkscape:connector-curvature="0"
           d="m 36.04,36.519 c -0.811,-0.945 -3.299,-1.02 -4.04,-1.02 -0.742,0 -3.232,0.074 -4.04,1.02 -0.576,0.672 -0.131,2.344 1.406,3.785 0.969,0.908 1.895,1.195 2.637,1.195 0.744,0 1.67,-0.287 2.639,-1.195 1.535,-1.442 1.982,-3.114 1.404,-3.785"
           id="path3634" />
        <path
           inkscape:connector-curvature="0"
           d="m 49.33,44 c 0,6.04 -5.758,13.1 -17.337,13.1 -11.583,0 -17.337,-7.05 -17.337,-13.1 0,0 5.755,0 17.337,0 11.579,0 17.337,0 17.337,0"
           id="path3636" />
      </g>
      <path
         style="fill:#363b40"
         inkscape:connector-curvature="0"
         d="m 33.686,45.34 c -0.531,-0.014 -1.348,0.482 -1.049,1.805 0.151,0.666 1.091,1.469 1.091,2.544 0,2.186 -3.461,2.186 -3.461,0 0,-1.075 0.938,-1.878 1.09,-2.544 0.3,-1.322 -0.518,-1.818 -1.046,-1.805 -1.441,0.038 -3.802,1.601 -3.802,4.243 0,2.971 2.458,5.379 5.49,5.379 3.032,0 5.488,-2.408 5.488,-5.379 -0.002,-2.642 -2.364,-4.205 -3.801,-4.243"
         id="path3638" />
      <path
         style="fill:#ff717f"
         inkscape:connector-curvature="0"
         d="m 41.574,54.55 c -2.535,-1.815 -5.713,-2.96 -9.578,-2.96 -3.865,0 -7.04,1.145 -9.576,2.96 2.531,1.814 5.711,2.964 9.576,2.964 3.865,0 7.04,-1.15 9.578,-2.964"
         id="path3640" />
      <g
         style="fill:#ffffff"
         id="g3642">
        <path
           inkscape:connector-curvature="0"
           d="m 16.882,43.705 3.842,5.605 3.842,-5.605 z"
           id="path3644" />
        <path
           inkscape:connector-curvature="0"
           d="m 20.725,43.705 22.544,0 0,2.093 -22.544,0 z"
           id="path3646" />
        <path
           inkscape:connector-curvature="0"
           d="m 39.43,43.705 3.84,5.605 3.84,-5.605 z"
           id="path3648" />
      </g>
      <g
         style="fill:#4c5359"
         id="g3650">
        <path
           inkscape:connector-curvature="0"
           d="M 31.996,57.849 C 20.142,57.849 13.746,50.714 13.746,44 l 0,-0.751 36.5,0 0,0.751 c 0,6.714 -6.395,13.849 -18.25,13.849 m -16.395,-13.1 c 0.459,5.756 6.172,11.6 16.395,11.6 10.223,0 15.937,-5.844 16.394,-11.6 l -32.789,0"
           id="path3652" />
        <path
           inkscape:connector-curvature="0"
           d="m 27.584,32.519 c -3.264,-6.197 -12.652,-6.197 -15.916,0 -0.195,0.379 0.32,0.922 0.95,1.354 4.136,-3.271 9.88,-3.271 14.02,-0.002 0.631,-0.431 1.147,-0.974 0.951,-1.352"
           id="path3654" />
        <path
           inkscape:connector-curvature="0"
           d="m 52.32,32.519 c -3.264,-6.197 -12.653,-6.197 -15.917,0 -0.195,0.379 0.32,0.922 0.949,1.352 4.137,-3.27 9.882,-3.27 14.02,0 0.631,-0.433 1.145,-0.974 0.951,-1.352"
           id="path3656" />
      </g>
    </g>
    <use
       height="100%"
       width="100%"
       transform="translate(-111.1592,-2.6125646)"
       id="use3719"
       xlink:href="#layer1"
       y="0"
       x="0" />
    <use
       height="100%"
       width="100%"
       transform="translate(-111.03852,-2.9497899)"
       id="use3730"
       xlink:href="#path3478"
       y="0"
       x="0" />
  </g>
  <g
     id="g3916"
     inkscape:export-xdpi="90"
     inkscape:export-ydpi="90">
    <g
       transform="translate(92.356703,166.3042)"
       id="g3891">
      <path
         style="fill:#dadee0"
         inkscape:connector-curvature="0"
         d="m 60.861,2 c 1.797,13.431 1.51,24.233 -1.166,31.132 L 34.888,14.677 C 39.815,9.584 49.818,3.459 60.861,2 Z"
         id="path3847" />
      <path
         style="fill:#f7a4a4"
         inkscape:connector-curvature="0"
         d="M 57.738,32.18 47.483,18.927 c 0,0 1.938,-7.285 11.616,-12.438 C 62,18.145 57.738,32.18 57.738,32.18"
         id="path3849" />
      <path
         style="fill:#f78d8d"
         inkscape:connector-curvature="0"
         d="m 53.835,29.16 -6.352,-8.209 c 0,0 2.574,-5.02 8.568,-8.216 -3.497,7.563 -2.216,16.425 -2.216,16.425"
         id="path3851" />
      <path
         style="fill:#dadee0"
         inkscape:connector-curvature="0"
         d="M 3.139,2 C 1.342,15.431 1.629,26.233 4.305,33.132 L 29.113,14.677 C 24.185,9.584 14.182,3.459 3.139,2 Z"
         id="path3853" />
      <path
         style="fill:#f7a4a4"
         inkscape:connector-curvature="0"
         d="M 6.262,32.177 16.517,18.924 c 0,0 -1.938,-7.285 -11.616,-12.438 C 2,18.142 6.262,32.177 6.262,32.177 Z"
         id="path3855" />
      <path
         style="fill:#f78d8d"
         inkscape:connector-curvature="0"
         d="m 10.165,29.16 6.352,-8.209 c 0,0 -2.574,-5.02 -8.568,-8.216 3.497,7.563 2.216,16.425 2.216,16.425"
         id="path3857" />
      <path
         style="fill:#dadee0"
         inkscape:connector-curvature="0"
         d="m 58.2,50.754 c 0.845,-0.881 1.415,-1.633 1.661,-2.162 1.63,-2.643 2.144,-5.342 2.144,-5.342 l -2,0.424 c 0,0 2.318,-2.463 1.691,-7.793 l -1.945,2.102 c 0,0 1.945,-5.41 0.254,-10.4 l -2.152,1.588 c 0,0 0.654,-2.031 0.053,-3.422 l -0.932,0.729 c 0,0 1.689,-4.665 0.154,-6.625 -0.855,2.827 -1.871,2.784 -1.871,2.784 0,0 1.242,-2.116 0.273,-3 -0.986,1.594 -1.807,0.558 -1.768,0.079 0.055,-0.637 -0.193,-1.534 2.703,-1.957 -2.314,-1.414 -5.05,-0.43 -5.05,-0.43 0,0 0.098,-1.489 2.123,-1.43 -1.871,-1.593 -4.48,-0.648 -4.48,-0.648 l 0.006,0.017 c -4.111,-3.11 -9.646,-4.902 -17.05,-4.902 -7.408,0 -12.942,1.792 -17.05,4.902 l 0.006,-0.017 c 0,0 -2.609,-0.944 -4.48,0.648 2.027,-0.06 2.125,1.43 2.125,1.43 0,0 -2.742,-0.984 -5.057,0.43 2.898,0.423 2.65,1.32 2.703,1.957 0.039,0.479 -0.779,1.515 -1.768,-0.079 -0.967,0.887 0.275,3 0.275,3 0,0 -1.016,0.043 -1.871,-2.784 -1.537,1.96 0.154,6.625 0.154,6.625 L 6.119,25.749 c -0.602,1.391 0.053,3.422 0.053,3.422 L 4.018,27.583 c -1.691,4.99 0.254,10.4 0.254,10.4 L 2.327,35.881 c -0.625,5.33 1.691,7.793 1.691,7.793 l -2,-0.424 c 0,0 0.513,2.694 2.141,5.339 0.249,0.534 0.833,1.304 1.698,2.202 0.023,0.024 0.044,0.049 0.067,0.072 l 0,-0.004 C 9.99,55.042 20.137,62 32.014,62 c 11.882,0 22.03,-6.96 26.09,-11.142 l 0,0.005 c 0.034,-0.036 0.065,-0.072 0.099,-0.109"
         id="path3859" />
      <g
         style="fill:#4c5359"
         id="g3861">
        <path
           inkscape:connector-curvature="0"
           d="M 36.04,38.767 C 35.229,37.822 32.741,37.749 32,37.749 c -0.742,0 -3.232,0.072 -4.04,1.018 -0.576,0.674 -0.131,2.344 1.406,3.785 0.969,0.91 1.895,1.197 2.637,1.197 0.744,0 1.67,-0.287 2.639,-1.197 1.535,-1.442 1.982,-3.112 1.404,-3.785"
           id="path3863" />
        <path
           inkscape:connector-curvature="0"
           d="m 43.743,45.861 c 0,4.74 -3.9,10.275 -11.743,10.275 -7.845,0 -11.743,-5.535 -11.743,-10.275 0,0 3.898,0 11.743,0 7.843,0 11.743,0 11.743,0"
           id="path3865" />
      </g>
      <path
         style="fill:#ff717f"
         inkscape:connector-curvature="0"
         d="m 32,51.38 c -4.539,0 -5.834,3.345 -5.834,3.345 0.688,1.49 10.98,1.489 11.666,0 0,0 -1.295,-3.345 -5.832,-3.345"
         id="path3867" />
      <path
         style="fill:#4c5359"
         inkscape:connector-curvature="0"
         d="m 32,56.87 c -8.104,0 -12.477,-5.671 -12.477,-11.01 l 0,-0.733 24.953,0 0,0.733 C 44.477,51.198 40.104,56.87 32,56.87 M 21.022,46.595 c 0.385,4.396 4.205,8.808 10.978,8.808 6.773,0 10.592,-4.412 10.977,-8.808 l -21.955,0"
         id="path3869" />
      <g
         style="fill:#94989b"
         id="g3871">
        <path
           inkscape:connector-curvature="0"
           d="M 37.686,10.763 C 35.924,10.505 34.036,10.362 32,10.362 c -2.036,0 -3.926,0.144 -5.689,0.401 0.736,3.856 2.75,6.583 5.688,11.585 2.98,-5.079 4.964,-7.756 5.687,-11.585"
           id="path3873" />
        <path
           inkscape:connector-curvature="0"
           d="m 46.813,13.785 c -1.908,-1.092 -4.072,-1.944 -6.523,-2.523 0.59,2.29 1.857,3.921 3.627,6.935 1.237,-2.111 2.216,-2.663 2.896,-4.412"
           id="path3875" />
        <path
           inkscape:connector-curvature="0"
           d="m 23.709,11.263 c -2.451,0.579 -4.615,1.431 -6.521,2.522 0.686,1.765 1.666,2.323 2.891,4.411 1.794,-3.057 3.048,-4.664 3.63,-6.933"
           id="path3877" />
      </g>
      <g
         style="fill:#f46767"
         id="g3879">
        <path
           inkscape:connector-curvature="0"
           d="m 60.864,25.976 c -0.416,-2.124 -1.821,-3.911 -4,-4.443 -2.381,-0.581 -4.557,0.255 -6.668,2.163 -1.185,-2.904 -2.993,-5.061 -5.846,-6.166 -2.923,-1.139 -5.763,-0.371 -7.555,1.648 -1.862,2.104 -2.603,5.342 -0.609,9.58 1.867,3.967 10.233,12.01 10.474,12.242 0.326,-0.181 9.643,-5.375 11.923,-7.928 2.233,-2.496 2.696,-4.98 2.283,-7.096"
           id="path3881" />
        <path
           inkscape:connector-curvature="0"
           d="m 27.21,19.18 c -1.79,-2.02 -4.632,-2.787 -7.554,-1.648 -2.854,1.105 -4.663,3.262 -5.849,6.166 -2.112,-1.91 -4.289,-2.743 -6.668,-2.162 -2.179,0.531 -3.587,2.318 -4,4.442 -0.412,2.114 0.051,4.601 2.281,7.098 2.284,2.55 11.602,7.745 11.927,7.926 0.24,-0.232 8.606,-8.275 10.474,-12.242 1.992,-4.237 1.25,-7.477 -0.61,-9.58"
           id="path3883" />
      </g>
    </g>
    <use
       height="100%"
       width="100%"
       transform="translate(-35.546154,97.190574)"
       id="use3912"
       xlink:href="#layer1"
       y="0"
       x="0" />
  </g>
</svg>
